<?xml version="1.0" encoding="UTF-8"?>
<svg viewBox="0 0 56 35" version="1.1" xmlns="http://www.w3.org/2000/svg" xmlns:xlink="http://www.w3.org/1999/xlink">
    <!-- Generator: Sketch 46.2 (44496) - http://www.bohemiancoding.com/sketch -->
    <title>icons/users</title>
    <desc>Created with Sketch.</desc>
    <defs></defs>
    <g id="Page-1" stroke="none" stroke-width="1" fill="none" fill-rule="evenodd" stroke-linecap="round" stroke-linejoin="round">
        <g id="Project-Details-Revised" transform="translate(-368.000000, -511.000000)" stroke-width="2" stroke="#FFFFFF">
            <g id="Page-1" transform="translate(369.000000, 512.000000)">
                <g id="icons/users">
                    <path d="M27.0004,15.2223 C23.6094,15.2223 20.8504,9.3023 20.8504,5.9023 C20.9864,2.5083 23.8494,-0.1317 27.2434,0.0053 C30.4444,0.1343 33.0104,2.7003 33.1394,5.9023 C33.1504,9.3123 30.3894,15.2223 27.0004,15.2223 Z" id="Stroke-1"></path>
                    <path d="M14.3398,32.5219 C14.3398,25.5299 20.0078,19.8619 26.9998,19.8619 C33.9918,19.8619 39.6598,25.5299 39.6598,32.5219" id="Stroke-3"></path>
                    <path d="M48.4902,9.9921 C48.4902,12.8621 46.1602,17.9921 43.2902,17.9921 C40.4202,17.9921 38.0902,12.8221 38.0902,9.9921 C38.0902,7.1171 40.4202,4.7871 43.2952,4.7871 C46.1702,4.7871 48.5002,7.1171 48.5002,9.9921 L48.4902,9.9921 Z" id="Stroke-5"></path>
                    <path d="M36.8096,24.1225 C41.5306,20.5495 48.2536,21.4785 51.8276,26.1995 C53.2376,28.0625 54.0006,30.3355 53.9996,32.6725" id="Stroke-7"></path>
                    <path d="M5.5098,9.9921 C5.5098,12.8621 7.8398,17.9921 10.7098,17.9921 C13.5798,17.9921 15.9098,12.8221 15.9098,9.9921 C15.9098,7.1171 13.5798,4.7871 10.7048,4.7871 C7.8308,4.7871 5.4998,7.1171 5.4998,9.9921 L5.5098,9.9921 Z" id="Stroke-9"></path>
                    <path d="M17.1899,24.1225 C12.4689,20.5495 5.7459,21.4785 2.1729,26.1995 C0.7619,28.0625 -0.0001,30.3355 -0.0001,32.6725" id="Stroke-11"></path>
                </g>
            </g>
        </g>
    </g>
</svg>